<?xml version="1.0" ?><svg viewBox="0 0 88 88" xmlns="http://www.w3.org/2000/svg"><title/><g id="Paper"><path d="M10,56h1V11H10a9,9,0,0,0-9,9V65A9,9,0,0,1,10,56Z"/><path d="M81,74H47v8H81a4,4,0,0,0,0-8Z"/><rect height="11.8993" transform="translate(-16.5183 44.1213) rotate(-45)" width="2.2429" x="43.8786" y="36.0504"/><rect height="4.9497" transform="translate(-4.786 51.8596) rotate(-45)" width="29.82" x="45.297" y="29.2322"/><rect height="11.8993" transform="translate(8.9817 54.6838) rotate(-45)" width="2.2429" x="69.3786" y="10.5504"/><rect height="4.9497" transform="translate(-2.7506 46.9455) rotate(-45)" width="29.82" x="40.383" y="24.3181"/><path d="M38.0078,40.876l-1,8A1,1,0,0,0,38,50a.9613.9613,0,0,0,.124-.0078l8-1c.4063-.05.5865-.2887.876-.5781L38.5859,40C38.2965,40.29,38.0581,40.47,38.0078,40.876Z"/><path d="M80.707,14.707a.9994.9994,0,0,0,0-1.414l-7-7a.9994.9994,0,0,0-1.414,0L68.5,10.0859,76.9141,18.5Z"/><path d="M81,28H70.2427L48.4141,49.8286l0,0A3.1638,3.1638,0,0,1,46.37,50.9771l-7.998.9995A2.8935,2.8935,0,0,1,38,52a3,3,0,0,1-2.9766-3.374l1-7.9981a3.1628,3.1628,0,0,1,1.1482-2.0418l0,0L47.7573,28H13V58H10a7,7,0,0,0,0,14H81a6,6,0,0,1,6,6V34A6,6,0,0,0,81,28ZM18,48H31a1,1,0,0,1,0,2H18a1,1,0,0,1,0-2ZM81,68H18a1,1,0,0,1,0-2H81a1,1,0,0,1,0,2Zm0-6H18a1,1,0,0,1,0-2H81a1,1,0,0,1,0,2Zm0-6H18a1,1,0,0,1,0-2H81a1,1,0,0,1,0,2Z"/></g></svg>