<?xml version="1.0" ?><svg viewBox="0 0 88 88" xmlns="http://www.w3.org/2000/svg"><title/><g id="Screen"><path d="M55,77H51V71H37v6H33a1,1,0,0,0,0,2H55a1,1,0,0,0,0-2Z"/><path d="M3,62a7.0081,7.0081,0,0,0,7,7H78a7.0081,7.0081,0,0,0,7-7V61H3Zm38,2h6a1,1,0,0,1,0,2H41a1,1,0,0,1,0-2Z"/><path d="M78,15H10a1.0009,1.0009,0,0,0-1,1V45.5859L25.293,29.293a.9994.9994,0,0,1,1.414,0l19,19a1,1,0,1,1-1.414,1.414L26,31.4141l-17,17V53H79V42.4141l-21-21L40.707,38.707a1,1,0,0,1-1.414-1.414l18-18a.9994.9994,0,0,1,1.414,0L79,39.5859V16A1.0009,1.0009,0,0,0,78,15ZM38,30a5,5,0,1,1,5-5A5.0059,5.0059,0,0,1,38,30Z"/><circle cx="38" cy="25" r="3"/><path d="M78,9H10a7.0081,7.0081,0,0,0-7,7V59H85V16A7.0081,7.0081,0,0,0,78,9Zm3,45a1,1,0,0,1-1,1H8a1,1,0,0,1-1-1V16a3.0033,3.0033,0,0,1,3-3H78a3.0033,3.0033,0,0,1,3,3Z"/></g></svg>